<svg width="1280" height="704" viewBox="0 0 1280 704" fill="none" xmlns="http://www.w3.org/2000/svg">
<path d="M227.147 364.29C212.752 269.48 180.591 261.216 155.861 213.36C133.346 169.83 115.189 98.6165 178.729 47.7052C277.428 -31.4411 398.474 49.5458 398.474 49.5458C398.474 49.5458 590.285 158.142 623.806 163.664C657.326 169.185 739.265 224.404 841.688 158.142C944.112 91.8798 1031.64 97.4017 1059.57 147.098C1087.5 196.795 1024.19 340.362 1009.29 369.812C994.392 399.262 1016.74 491.292 1040.95 528.105C1065.16 564.917 1141.51 679.035 977.632 675.353C813.755 671.672 322.122 677.194 322.122 677.194C322.122 677.194 145.637 673.936 176.867 504.177C202.938 362.45 232.734 401.102 227.147 364.29Z" fill="#3DDC84" fill-opacity="0.1"/>
<path d="M290.464 351.407C311.034 351.407 327.709 334.925 327.709 314.595C327.709 294.264 311.034 277.782 290.464 277.782C269.894 277.782 253.219 294.264 253.219 314.595C253.219 334.925 269.894 351.407 290.464 351.407Z" fill="#3DDC84"/>
<path d="M195.245 658.625C215.815 658.625 232.49 642.143 232.49 621.813C232.49 601.482 215.815 585 195.245 585C174.675 585 158 601.482 158 621.813C158 642.143 174.675 658.625 195.245 658.625Z" fill="#3DDC84"/>
<path d="M228.079 384.538C241.964 384.538 253.22 373.413 253.22 359.69C253.22 345.966 241.964 334.841 228.079 334.841C214.194 334.841 202.938 345.966 202.938 359.69C202.938 373.413 214.194 384.538 228.079 384.538Z" fill="#3DDC84"/>
<path d="M231.804 316.436C239.517 316.436 245.771 310.255 245.771 302.631C245.771 295.007 239.517 288.826 231.804 288.826C224.09 288.826 217.837 295.007 217.837 302.631C217.837 310.255 224.09 316.436 231.804 316.436Z" fill="#3DDC84"/>
<path d="M1057.71 599.889C1078.28 599.889 1094.95 583.408 1094.95 563.077C1094.95 542.746 1078.28 526.265 1057.71 526.265C1037.14 526.265 1020.46 542.746 1020.46 563.077C1020.46 583.408 1037.14 599.889 1057.71 599.889Z" fill="#3DDC84"/>
<path d="M162.901 141.578C170.614 141.578 176.868 135.397 176.868 127.773C176.868 120.149 170.614 113.968 162.901 113.968C155.187 113.968 148.934 120.149 148.934 127.773C148.934 135.397 155.187 141.578 162.901 141.578Z" fill="#3DDC84"/>
<path d="M1003.7 408.466C1017.08 408.466 1027.91 397.753 1027.91 384.538C1027.91 371.323 1017.08 360.61 1003.7 360.61C990.334 360.61 979.495 371.323 979.495 384.538C979.495 397.753 990.334 408.466 1003.7 408.466Z" fill="#83E9B1"/>
<path d="M378.921 64.2722C391.777 64.2722 402.2 53.9712 402.2 41.2643C402.2 28.5574 391.777 18.2564 378.921 18.2564C366.065 18.2564 355.643 28.5574 355.643 41.2643C355.643 53.9712 366.065 64.2722 378.921 64.2722Z" fill="#83E9B1"/>
<path d="M304.431 522.584C317.288 522.584 327.71 512.283 327.71 499.576C327.71 486.869 317.288 476.568 304.431 476.568C291.575 476.568 281.153 486.869 281.153 499.576C281.153 512.283 291.575 522.584 304.431 522.584Z" fill="#3DDC84" fill-opacity="0.53"/>
<path d="M1054.92 255.696C1067.77 255.696 1078.19 245.395 1078.19 232.688C1078.19 219.981 1067.77 209.68 1054.92 209.68C1042.06 209.68 1031.64 219.981 1031.64 232.688C1031.64 245.395 1042.06 255.696 1054.92 255.696Z" fill="#3DDC84"/>
<path d="M1017.67 647.746C1031.56 647.746 1042.81 636.621 1042.81 622.897C1042.81 609.174 1031.56 598.049 1017.67 598.049C1003.79 598.049 992.531 609.174 992.531 622.897C992.531 636.621 1003.79 647.746 1017.67 647.746Z" fill="#3DDC84"/>
<path d="M1073.54 649.586C1081.25 649.586 1087.51 643.405 1087.51 635.781C1087.51 628.157 1081.25 621.977 1073.54 621.977C1065.82 621.977 1059.57 628.157 1059.57 635.781C1059.57 643.405 1065.82 649.586 1073.54 649.586Z" fill="#3DDC84"/>
</svg>
